# xmcd CD database file
#
# Track frame offsets:
#	150
#	14422
#	38850
#	47647
#	64702
#	84875
#	101100
#	118275
#	139710
#	155812
#	172522
#	180750
#	192367
#	216187
#	229912
#	249547
#	271935
#	286747
#
# Disc length: 4178 seconds
#
# Revision: 0
# Processed by: cddbd v1.5.1PL0 Copyright (c) Steve Scherf et al.
# Submitted via: CDex 1.51
#
DISCID=f3105012
DTITLE=Partial To Mabel - If You Knew Mabel
DYEAR=1997
DGENRE=Country
TTITLE0=Funnier Than Me
TTITLE1=The Bug Song
TTITLE2=Knobby Knees
TTITLE3=The Way It Is
TTITLE4=Folsom Prison Blues
TTITLE5=Water's Moving
TTITLE6=Petrified
TTITLE7=The Big Easy
TTITLE8=I Did Fine
TTITLE9=No Reason
TTITLE10=Old Man McCarty
TTITLE11=You Can Have Her
TTITLE12=She's A Rock
TTITLE13=Any Money
TTITLE14=Post Partum Blues
TTITLE15=This Life
TTITLE16=When The Seed Splits
TTITLE17=Git Down Mabel
EXTD=YEAR: 1997
EXTT0=
EXTT1=
EXTT2=
EXTT3=
EXTT4=
EXTT5=
EXTT6=
EXTT7=
EXTT8=
EXTT9=
EXTT10=
EXTT11=
EXTT12=
EXTT13=
EXTT14=
EXTT15=
EXTT16=
EXTT17=
PLAYORDER=
